<?xml version="1.0" encoding="UTF-8"?><svg xmlns="http://www.w3.org/2000/svg" width="255" height="190" viewBox="0 0 255 190"><defs><style>.e{fill:#fff;}.f{fill:#d50c2d;}</style></defs><g id="a"/><g id="b"><g id="c"><rect class="f" width="255" height="190"/><g id="d"><path class="e" d="M210.83,97.99c1.65-.29,3.21-.97,4.53-2h0c1.22-1.28,1.83-3.02,1.68-4.78,0-1.43-.39-2.84-1.14-4.06-1.11-1.89-3.09-3.09-5.28-3.19h-1.09l-2.55-.09h-11.54c-.7,0-1,.29-1,1v20.22c0,.7,.29,1,1,1h3c.7,0,1-.29,1-1v-6.7h3.67c.81,.04,1.57,.36,2.17,.91l5.82,5.85c.53,.54,1.24,.87,2,.92h4.47c.7,0,.87-.41,.38-.91l-7.12-7.17Zm-.76-4.3h-10.65v-5.1h10.65c1.08,.13,1.89,1.06,1.87,2.15v.79c.02,1.09-.79,2.02-1.87,2.16h0Z"/><path class="e" d="M189.78,101.4h-16.53v-4.17h13.19c.7,0,1-.29,1-1v-2.43c0-.7-.29-1-1-1h-13.2v-4.16h16.54c.7,0,1-.29,1-1v-2.76c0-.7-.29-1-1-1h-20.62c-.7,0-1,.29-1,1v20.24c0,.7,.29,1,1,1h20.62c.7,0,1-.29,1-1v-2.73c0-.7-.33-.99-1-.99Z"/><path class="e" d="M164.51,91.18c.02-1.42-.37-2.81-1.13-4-1.11-1.93-3.13-3.18-5.36-3.3h-15.16c-.71,0-1,.29-1,1v20.22c0,.7,.29,1,1,1h3.26c.7,0,1-.28,1-1v-16.49h8.78c1.87,0,3.69,1.24,3.69,3.11v13.4c0,.7,.29,1,1,1h2.95c.71,0,1-.29,1-1l-.03-13.94Z"/><path class="e" d="M137.25,101.26h-14.25l14.28-12.55c.58-.44,.94-1.11,1-1.84v-2c0-.7-.3-1-1-1h-20.67c-.7,0-1,.29-1,1v2.77c0,.7,.29,1,1,1h13.25l-13.29,12.47c-.57,.45-.94,1.11-1,1.84v2.17c0,.7,.29,1,1,1h20.65c.7,0,1-.29,1-1v-2.87c.02-.7-.27-.99-.97-.99Z"/><path class="e" d="M110.97,83.88h-20.64c-.71,0-1,.28-1,1v2.76c0,.7,.28,1,1,1h7.78v16.48c0,.7,.29,1,1,1h3.3c.7,0,1-.29,1-1v-16.49h7.57c.7,0,1-.29,1-1v-2.75c-.02-.68-.31-1-1.01-1Z"/><path class="e" d="M84.69,101.4h-16.5v-4.17h13.19c.7,0,1-.29,1-1v-2.43c0-.7-.28-1-1-1h-13.19v-4.16h16.5c.7,0,1-.29,1-1v-2.76c0-.7-.29-1-1-1h-20.58c-.7,0-1,.29-1,1v20.24c0,.7,.29,1,1,1h20.58c.7,0,1-.29,1-1v-2.73c0-.7-.3-.99-1-.99Z"/><path class="e" d="M58.41,83.88h-3.11c-.7,0-1,.29-1,1v7.87h-12.39v-7.87c0-.7-.29-1-1-1h-3.13c-.71,0-1,.29-1,1v20.25c0,.71,.29,1,1,1h3.13c.7,0,1-.28,1-1v-8h12.4v8c0,.7,.29,1,1,1h3.11c.7,0,1-.29,1-1v-20.25c-.02-.68-.31-1-1.01-1Z"/></g></g></g></svg>